<?xml version="1.0" encoding="utf-8"?>
<!-- Generator: Adobe Illustrator 17.0.0, SVG Export Plug-In . SVG Version: 6.00 Build 0)  -->
<!DOCTYPE svg PUBLIC "-//W3C//DTD SVG 1.1//EN" "http://www.w3.org/Graphics/SVG/1.1/DTD/svg11.dtd">
<svg version="1.1" id="Layer_1" xmlns="http://www.w3.org/2000/svg" xmlns:xlink="http://www.w3.org/1999/xlink" x="0px" y="0px"
	 width="1728px" height="864px" viewBox="0 0 1728 864" enable-background="new 0 0 1728 864" xml:space="preserve">
<g>
	<g>
		<g>
			<path fill="#FFFFFF" d="M68.334,827.334c0-258.333,0-516.666,0-774.999c252.886,0,505.773,0,758.659,0
				c0,258.333,0,516.666,0,774.999C574.107,827.334,321.221,827.334,68.334,827.334z M155.417,611.261
				c5.181-1.656,13.79-4.96,22.69-6.977c3.468-0.786,10.057,0.214,11.002,2.306c4.6,10.191,7.42,21.168,11.586,31.581
				c2.323,5.806,4.846,12.487,9.372,16.271c11.976,10.015,25.185,18.542,37.733,27.889c18.873,14.057,37.445,28.521,56.431,42.423
				c25.609,18.752,51.227,37.517,77.407,55.449c8.351,5.72,18.526,12.421,27.832,12.37c21.5-0.117,43.576-1.876,64.214-7.435
				c10.338-2.785,17.392-16.236,27.06-23.322c25.263-18.514,51.451-35.767,76.674-54.334c15.855-11.672,32.147-23.39,45.493-37.66
				c15.19-16.242,27.645-35.116,40.61-53.329c4.837-6.794,9.2-8.883,17.43-6.106c15.617,5.269,29.142-0.426,37.424-14.627
				c6.839-11.726,12.494-24.251,20.263-35.306c18.86-26.837,31.753-55.65,34.452-88.704c1.352-16.565-5.485-30.004-16.929-40.259
				c-10-8.961-21.468-5.36-32.008,1.891c-5.134,3.532-9.9,2.454-10.669-4.928c-0.748-7.191-1.927-14.449-1.587-21.614
				c0.531-11.212,3.737-22.477,2.978-33.525c-1.014-14.766-2.506-29.891-15.033-41.173c-8.552-7.702-5.885-15.39,5.277-18.275
				c10.57-2.733,13.625-7.623,9.015-17.694c-2.785-6.085-7.34-11.804-12.318-16.356c-13.654-12.484-28.202-23.987-41.916-36.409
				c-11.01-9.973-15.581-22.47-13.861-37.718c0.694-6.151-0.468-13.62-3.545-18.874c-8.357-14.268-19.53-26.434-36.042-31.346
				c-12.514-3.723-25.529-5.73-38.164-9.092c-5.814-1.547-11.285-4.38-7.537-12.418c4.976-10.672,3.535-13.065-7.835-14.125
				c-20.078-1.872-39.349,0.684-58.336,7.99c-10.011,3.852-20.978,6.082-31.678,6.907c-5.082,0.392-13.352-2.82-15.349-6.813
				c-7.773-15.546-20.887-21.95-36.453-22.255c-18.484-0.363-37.148,0.96-55.507,3.32c-32.728,4.207-63.857,14.707-91.227,33
				c-13.22,8.835-26.306,11.911-41.267,12.342c-27.206,0.784-53.122,4.344-63.794,35.254c-0.12,0.347-0.437,0.648-0.717,0.913
				c-16.531,15.679-15.375,37.419-19.305,57.33c-0.573,2.905,0.971,7.703,3.221,9.438c10.46,8.064,9.302,19.056,5.723,28.574
				c-4.245,11.289-10.793,22.057-18.067,31.759c-6.451,8.605-6.735,16.086,0.946,22.314c8.796,7.133,6.689,13.988,0.322,19.511
				c-13.453,11.669-11.579,26.93-11.799,41.889c-0.141,9.616,0.597,19.294-0.262,28.836c-0.751,8.346-4.461,14.36-13.58,18.276
				c-6.988,3.001-13.03,10.406-17.235,17.242c-9.948,16.169-7.103,34.185-2.326,50.911c6.362,22.279,14.651,44.071,23.198,65.642
				C116.732,600.656,131.991,608.923,155.417,611.261z"/>
			<path d="M155.417,611.261c-23.426-2.338-38.684-10.605-45.992-29.048c-8.547-21.571-16.836-43.363-23.198-65.642
				c-4.777-16.726-7.622-34.742,2.326-50.911c4.205-6.835,10.247-14.241,17.235-17.242c9.12-3.916,12.829-9.93,13.58-18.276
				c0.859-9.542,0.121-19.22,0.262-28.836c0.22-14.959-1.654-30.22,11.799-41.889c6.367-5.523,8.473-12.378-0.322-19.511
				c-7.681-6.229-7.397-13.709-0.946-22.314c7.273-9.702,13.822-20.47,18.067-31.759c3.579-9.518,4.737-20.51-5.723-28.574
				c-2.25-1.735-3.795-6.533-3.221-9.438c3.931-19.911,2.775-41.65,19.305-57.33c0.279-0.265,0.597-0.566,0.717-0.913
				c10.672-30.91,36.588-34.47,63.794-35.254c14.962-0.431,28.048-3.506,41.267-12.342c27.37-18.293,58.499-28.793,91.227-33
				c18.359-2.36,37.023-3.683,55.507-3.32c15.567,0.305,28.681,6.71,36.453,22.255c1.997,3.994,10.266,7.205,15.349,6.813
				c10.7-0.825,21.667-3.055,31.678-6.907c18.986-7.305,38.257-9.862,58.336-7.99c11.37,1.06,12.811,3.453,7.835,14.125
				c-3.748,8.037,1.723,10.871,7.537,12.418c12.635,3.362,25.65,5.369,38.164,9.092c16.512,4.912,27.684,17.077,36.042,31.346
				c3.077,5.253,4.238,12.723,3.545,18.874c-1.72,15.247,2.851,27.745,13.861,37.718c13.714,12.422,28.262,23.925,41.916,36.409
				c4.978,4.551,9.533,10.271,12.318,16.356c4.61,10.071,1.555,14.961-9.015,17.694c-11.161,2.886-13.829,10.573-5.277,18.275
				c12.527,11.282,14.019,26.407,15.033,41.173c0.759,11.048-2.446,22.314-2.978,33.525c-0.34,7.166,0.839,14.424,1.587,21.614
				c0.768,7.382,5.535,8.46,10.669,4.928c10.54-7.251,22.008-10.852,32.008-1.891c11.444,10.255,18.281,23.695,16.929,40.259
				c-2.699,33.054-15.592,61.868-34.452,88.704c-7.769,11.054-13.424,23.579-20.263,35.306
				c-8.282,14.201-21.807,19.897-37.424,14.627c-8.23-2.777-12.593-0.689-17.43,6.106c-12.965,18.213-25.419,37.087-40.61,53.329
				c-13.346,14.27-29.638,25.988-45.493,37.66c-25.222,18.567-51.411,35.82-76.674,54.334c-9.669,7.086-16.723,20.537-27.06,23.322
				c-20.639,5.56-42.715,7.318-64.214,7.435c-9.306,0.051-19.481-6.65-27.832-12.37c-26.181-17.932-51.798-36.698-77.407-55.449
				c-18.986-13.901-37.558-28.366-56.431-42.423c-12.549-9.347-25.757-17.874-37.733-27.889c-4.525-3.784-7.048-10.465-9.372-16.271
				c-4.167-10.412-6.986-21.389-11.586-31.581c-0.945-2.093-7.533-3.092-11.002-2.306
				C169.206,606.301,160.597,609.605,155.417,611.261z M654.244,601.055c3.307-5.92,5.353-8.338,6.093-11.105
				c5.845-21.838,11.404-43.761,31.722-62.802c-2.009,8.179-2.361,14.116-4.859,18.941c-7.474,14.438-14.249,28.809-6.022,45.023
				c2.232,4.4,6.685,11.318,9.482,11.024c5.751-0.604,13.128-3.928,16.209-8.55c12.651-18.977,24.395-38.605,35.611-58.481
				c12.649-22.414,21.956-46.128,22.558-72.372c0.246-10.714-2.465-19.662-13.769-24.455c-10.656-4.518-18.184-0.736-24.356,7.378
				c-5.604,7.367-13.654,14.74-14.98,23.015c-1.612,10.062-6.836,15.591-13.069,21.833c-5.504,5.512-11.639,8.405-18.758,4.678
				c-7.295-3.819-6.44-10.782-6.562-18.217c-0.282-17.27-1.602-34.642-4.351-51.675c-0.784-4.856-7.285-9.784-12.315-12.684
				c-5.154-2.972-11.666-3.734-17.675-5.039c-8.89-1.931-11.336-6.671-7.328-14.85c3.243-6.618,5.836-13.634,9.733-19.835
				c11.974-19.052,5.269-39.385-17.382-47.28c-4.555-1.588-9.131-6.727-11.139-11.342c-6.32-14.529-11.358-29.612-17.023-44.431
				c-3.135-8.202-7.251-16.682-17.201-16.61c-10.051,0.073-9.225,10.057-11.257,16.699c-2.456,8.027-6.869,9.379-12.595,3.912
				c-5.842-5.577-10.895-11.997-16.132-18.184c-7.751-9.156-15.059-18.712-23.231-27.468c-2.159-2.314-6.795-2.317-10.293-3.382
				c-0.016,3.544-0.529,7.175,0.079,10.608c0.736,4.156,3.146,8.085,3.49,12.223c0.353,4.256-0.912,8.647-1.468,12.979
				c-4.447-1.586-9.656-2.2-13.178-4.964c-6.97-5.471-12.842-12.318-19.542-18.169c-1.737-1.517-5.837-2.77-7.118-1.816
				c-2.106,1.567-3.352,4.928-3.899,7.74c-0.405,2.086,1.35,4.511,1.29,6.763c-0.086,3.271,0.135,7.866-1.775,9.394
				c-1.831,1.464-6.908,0.81-9.361-0.771c-12.283-7.914-24.159-16.459-36.206-24.742c-7.433-5.11-12.838-14.243-26.83-13.055
				c2.826,6.045,4.287,10.615,6.89,14.4c3.948,5.744,9.453,10.509,12.856,16.508c2.819,4.97,3.558,11.121,5.218,16.749
				c-5.722,1.013-11.433,2.091-17.174,2.98c-1.078,0.167-2.268-0.459-3.417-0.663c-31.626-5.615-63.241-11.296-94.889-16.793
				c-10.746-1.866-16.656,5.358-12.241,15.273c3.933,8.832,8.839,17.229,13.23,25.861c3.112,6.118,12.042,12.219,4.268,19.208
				c-7.03,6.321-12.132-1.931-17.351-6.023c-6.816-5.345-10.431-2.822-11.9,5.022c-1.03,5.503-2.388,10.945-4.168,18.98
				c-4.976-4.347-8.349-6.657-10.913-9.659c-6.532-7.649-12.414-15.868-19.154-23.317c-2.813-3.108-7.144-4.842-10.785-7.201
				c-0.608,4.291-2.018,8.652-1.651,12.857c0.671,7.67,3.772,15.319,3.387,22.85c-0.747,14.598-2.331,28.735-18.002,37.478
				c-6.262,3.494-10.924,12.717-12.92,20.234c-2.216,8.344-0.295,17.727-0.645,26.639c-0.498,12.682,1.451,26.919-8.936,36.195
				c-18.183,16.238-14.385,32.96-4.15,50.838c0.965,1.685,2.126,3.332,2.707,5.153c8.259,25.893,34.457,28.801,53.133,41.287
				c1.41,0.942,4.517-0.265,6.697-0.926c16.65-5.051,33.205-10.434,49.948-15.15c3.164-0.891,8.589-0.48,10.15,1.526
				c1.621,2.083,0.842,7.364-0.693,10.303c-3.393,6.499-8.004,12.352-11.945,18.578c-1.697,2.681-2.967,5.633-5.779,11.065
				c5.948-2.264,8.805-3.352,12.881-4.903c-8.006,10.832-3.091,15.333,6.254,19.216c9.127,3.792,16.804,3.945,24.897-2.512
				c2.677-2.136,8.308-2.876,11.327-1.495c2.134,0.976,3.904,7.318,2.796,10.016c-4.647,11.321-0.031,18.181,9.824,22.131
				c7.663,3.071,15.829,5.703,23.979,6.565c14.241,1.505,28.663,1.188,42.969,2.204c17.636,1.252,35.496,6.009,51.665-6.058
				c2.189-1.634,5.936-1.319,8.989-1.637c26.456-2.751,49.56-13.529,70.18-29.83c2.245-1.775,4.157-6.648,3.339-9.138
				c-2.957-9.005-1.081-21.684-16.151-22.768c-3.371-0.242-6.452-4.51-9.666-6.925c0.269-1.039,0.537-2.078,0.806-3.116
				c3.021-0.256,6.815-1.798,8.918-0.531c6.552,3.948,11.818,2.34,18.459-0.275c7.651-3.014,13.768-6.177,17.233-14.123
				c1.132-2.596,5.428-5.763,7.937-5.494c17.42,1.864,29.996-8.766,44.2-15.549c4.662-2.226,10.805-1.352,16.271-1.896
				c0.328,5.157,2.686,11.365,0.649,15.296c-11.765,22.714-3.648,45.422-1.218,68.117
				C649.486,591.672,651.558,594.624,654.244,601.055z M600.453,648.521c-15.716,11.052-26.554,22.615-42.481,28.57
				c-10.96,4.097-18.082,18.676-33.669,15.351c-1.605-0.342-3.56,1.449-5.437,1.799c-8.15,1.522-16.286,3.593-24.513,4.12
				c-11.382,0.729-23.986-2.819-34.031,0.924c-21.246,7.918-42.819,4.956-63.908,4.621c-16.075-0.256-32.728-6.777-48.734-3.47
				c-22.036,4.552-33.593-9.952-46.582-21.873c-2.567-2.355-0.447-10.114-0.014-15.341c0.314-3.79,2.979-10.198,1.902-10.826
				c-6.113-3.569-12.879-6.809-19.769-7.833c-2.446-0.364-7.737,5.416-8.507,9.07c-2.948,13.998,2.447,26.245,11.797,36.271
				c13.396,14.365,26.477,29.361,41.666,41.646c30.045,24.301,60.927,46.737,102.803,47.562c24.374,0.48,44.948-3.822,61.233-22.711
				c2.507-2.908,5.429-5.579,8.547-7.821c25.371-18.242,51.507-35.508,75.94-54.923c9.813-7.798,16.311-19.982,23.495-30.72
				C601.944,660.319,600.453,655.531,600.453,648.521z M551.513,218.478c2.806-2.008,8.235-3.992,9.934-7.69
				c1.449-3.152-0.047-10.133-2.685-12.043c-3.088-2.236-9.5-2.331-13.265-0.652c-6.874,3.065-11.747,3.858-17.49-2.366
				c-8.1-8.779-17.402-16.438-25.96-24.81c-8.522-8.337-17.561-8.011-26.001-0.89c-8.504,7.175-16.27,5.173-22.789-1.318
				c-8.174-8.139-15.991-8.661-24.709-2.021c-8.064,6.142-14.965,5.43-22.933-1.02c-8.439-6.832-17.56-8.688-27.145,0.092
				c-14.336,13.131-25.512,12.158-39.201-1.95c-7.582-7.814-14.903-5.687-18.807,4.351c-6.612,16.999,18.426,35.801,30.786,33.707
				c2.383-0.404,5.026-2.204,6.565-4.142c5.647-7.108,11.325-5.514,18.46-2.054c5.85,2.837,12.728,4.13,19.283,4.794
				c8.402,0.851,16.968,0.864,25.407,0.332c6.638-0.418,13.164-2.392,19.789-3.319c3.946-0.552,8.943-2.028,11.826-0.319
				c13.844,8.205,28.684,11.165,44.498,11.574c7.31,0.189,14.622,1.704,21.856,3.04C529.11,213.653,539.217,215.925,551.513,218.478
				z M94.333,493.306c2.069,10.277,3.337,19.839,5.983,29.004c4.712,16.318,11.48,32.127,15.11,48.649
				c3.586,16.321,13.351,24.585,28.218,28.902c17.252,5.01,31.166-4.075,33.436-21.803c0.437-3.416,1.386-6.765,1.841-10.179
				c2.816-21.109-1.215-41.542-11.971-59.208c-4.847-7.962-7.482-14.057-8.222-23.413c-0.543-6.869-8.753-14.712-15.512-19.073
				c-7.016-4.526-16.711-4.652-24.661-8.044c-8.62-3.678-15.173-1.944-18.002,6.34C97.368,473.81,96.277,483.855,94.333,493.306z
				 M520.352,622.419c-0.384-1.105-0.769-2.211-1.153-3.316c-10.662,2.658-21.418,5.015-31.882,8.303
				c-1.54,0.484-3.065,5.872-2.251,8.154c3.544,9.935,16.414,14.619,27.019,11.236c9.838-3.138,20.063-7.912,29.903-7.445
				c11.284,0.536,18.14-1.371,21.086-12.545c1.73-6.565,6.125-9.733,12.137-6.38c12.296,6.858,18.734-1.506,25.645-8.829
				c5.033-5.333,3.417-9.469-2.737-12.915c-8.092-4.532-23.619-0.973-33.664,4.507C550.431,610.838,535.115,616.122,520.352,622.419
				z M266.789,672.899c-0.313-4.401-0.504-8.151-0.86-11.885c-1.143-11.987-3.427-23.988-3.222-35.948
				c0.202-11.781,3.253-23.489,4.253-35.297c0.245-2.895-1.846-7.709-4.198-8.824c-15.878-7.528-20.588-5.051-27.923,11.083
				c-5.082,11.179-6.595,21.948-1.875,33.533c4.369,10.724,7.144,22.26,12.708,32.28
				C249.531,664.793,252.843,675.103,266.789,672.899z M255.167,213.11c-0.218-9.619-7.293-18.434-16.835-16.973
				c-11.026,1.688-22.139,5.777-32.014,11.066c-7.7,4.124-6.664,19.174,0.43,26.878c7.826,8.5,12.548,0.467,18.588-3.183
				c4.365-2.638,10.056-5.133,14.827-4.623C250.205,227.348,255.406,223.651,255.167,213.11z M414.055,674.166
				c-10.884-0.926-21.838-1.494-29.514,8.833c-4.714,6.343-4.509,11.502,3.582,12.724c7.41,1.118,15.196-0.242,22.815-0.529
				c6.362-0.24,13.371-2.349,18.951-0.386c12.187,4.288,20.178-1.559,28.051-8.71c1.732-1.573,3.415-5.527,2.605-7.029
				c-1.22-2.261-4.609-4.6-7.154-4.69C440.293,673.919,427.169,674.166,414.055,674.166z M276.319,605.969
				c-7.962,14.835-3.733,24.496,12.389,27.556c10.247,1.945,20.289,5.17,30.594,6.5c3.757,0.485,11.439-2.867,11.431-4.438
				c-0.033-6.425,4.575-15.537-6.568-18.178C308.595,613.72,293.04,609.97,276.319,605.969z M423.761,640.821
				c-4.621-4.469-8.638-11.569-14.002-12.8c-8.338-1.913-20.869,13.182-19.377,23.08c0.497,3.297,7.097,7.696,11.21,8.047
				C413.996,660.205,421.556,653.348,423.761,640.821z M461.681,636.234c-1.801-1.239-5.316-5.48-9.367-6.074
				c-8.967-1.315-14.024,4.851-14.284,12.982c-0.113,3.53,4.55,10.281,7.007,10.264
				C453.209,653.349,461.754,651.357,461.681,636.234z M500.096,663.828c-11.41-0.261-17.884,2.851-17.3,12.22
				c0.186,2.984,4.562,5.706,7.021,8.548c5.164-4.507,10.599-8.771,15.127-13.844C505.476,670.157,501.015,665.106,500.096,663.828z
				"/>
			<path fill="#FFFFFF" d="M654.244,601.055c-2.685-6.431-4.758-9.383-5.094-12.52c-2.43-22.695-10.547-45.403,1.218-68.117
				c2.037-3.932-0.321-10.14-0.649-15.296c-5.466,0.544-11.609-0.33-16.271,1.896c-14.204,6.783-26.78,17.413-44.2,15.549
				c-2.509-0.268-6.805,2.898-7.937,5.494c-3.466,7.946-9.582,11.109-17.233,14.123c-6.641,2.616-11.906,4.223-18.459,0.275
				c-2.103-1.267-5.897,0.274-8.918,0.531c-0.269,1.039-0.537,2.078-0.806,3.116c3.214,2.414,6.295,6.682,9.666,6.925
				c15.07,1.084,13.194,13.763,16.151,22.768c0.817,2.489-1.095,7.363-3.339,9.138c-20.62,16.301-43.724,27.079-70.18,29.83
				c-3.053,0.318-6.8,0.003-8.989,1.637c-16.169,12.067-34.029,7.31-51.665,6.058c-14.306-1.016-28.728-0.699-42.969-2.204
				c-8.15-0.861-16.316-3.493-23.979-6.565c-9.855-3.95-14.471-10.81-9.824-22.131c1.108-2.698-0.662-9.041-2.796-10.016
				c-3.019-1.38-8.65-0.641-11.327,1.495c-8.093,6.457-15.77,6.304-24.897,2.512c-9.345-3.883-14.26-8.384-6.254-19.216
				c-4.076,1.551-6.933,2.639-12.881,4.903c2.812-5.432,4.082-8.384,5.779-11.065c3.942-6.226,8.552-12.08,11.945-18.578
				c1.535-2.94,2.314-8.22,0.693-10.303c-1.561-2.006-6.987-2.417-10.15-1.526c-16.743,4.716-33.297,10.099-49.948,15.15
				c-2.18,0.661-5.287,1.869-6.697,0.926c-18.676-12.486-44.874-15.394-53.133-41.287c-0.581-1.821-1.742-3.467-2.707-5.153
				c-10.235-17.878-14.033-34.6,4.15-50.838c10.387-9.276,8.439-23.513,8.936-36.195c0.35-8.912-1.57-18.296,0.645-26.639
				c1.996-7.517,6.658-16.74,12.92-20.234c15.671-8.743,17.255-22.881,18.002-37.478c0.385-7.531-2.716-15.18-3.387-22.85
				c-0.368-4.205,1.042-8.566,1.651-12.857c3.641,2.359,7.973,4.092,10.785,7.201c6.741,7.449,12.622,15.668,19.154,23.317
				c2.563,3.002,5.937,5.312,10.913,9.659c1.78-8.035,3.138-13.477,4.168-18.98c1.469-7.844,5.084-10.367,11.9-5.022
				c5.218,4.092,10.321,12.344,17.351,6.023c7.773-6.989-1.156-13.09-4.268-19.208c-4.392-8.632-9.297-17.029-13.23-25.861
				c-4.415-9.915,1.495-17.139,12.241-15.273c31.647,5.496,63.262,11.177,94.889,16.793c1.148,0.204,2.338,0.829,3.417,0.663
				c5.741-0.888,11.452-1.967,17.174-2.98c-1.66-5.628-2.398-11.779-5.218-16.749c-3.403-5.998-8.908-10.764-12.856-16.508
				c-2.602-3.786-4.064-8.356-6.89-14.4c13.992-1.187,19.397,7.945,26.83,13.055c12.047,8.282,23.923,16.827,36.206,24.742
				c2.453,1.581,7.53,2.236,9.361,0.771c1.911-1.528,1.689-6.123,1.775-9.394c0.059-2.252-1.696-4.677-1.29-6.763
				c0.546-2.811,1.793-6.172,3.899-7.74c1.282-0.954,5.381,0.299,7.118,1.816c6.7,5.851,12.572,12.698,19.542,18.169
				c3.522,2.764,8.732,3.378,13.178,4.964c0.557-4.332,1.821-8.722,1.468-12.979c-0.343-4.138-2.754-8.067-3.49-12.223
				c-0.608-3.433-0.095-7.065-0.079-10.608c3.498,1.064,8.133,1.068,10.293,3.382c8.172,8.756,15.48,18.312,23.231,27.468
				c5.238,6.187,10.291,12.608,16.132,18.184c5.726,5.466,10.139,4.114,12.595-3.912c2.032-6.643,1.206-16.627,11.257-16.699
				c9.95-0.072,14.065,8.408,17.201,16.61c5.665,14.819,10.702,29.902,17.023,44.431c2.008,4.615,6.584,9.755,11.139,11.342
				c22.651,7.895,29.357,28.228,17.382,47.28c-3.897,6.201-6.49,13.218-9.733,19.835c-4.008,8.179-1.562,12.92,7.328,14.85
				c6.01,1.305,12.522,2.067,17.675,5.039c5.03,2.9,11.531,7.828,12.315,12.684c2.749,17.032,4.069,34.405,4.351,51.675
				c0.122,7.435-0.734,14.398,6.562,18.217c7.119,3.727,13.253,0.833,18.758-4.678c6.233-6.241,11.457-11.77,13.069-21.833
				c1.326-8.275,9.376-15.648,14.98-23.015c6.173-8.114,13.701-11.896,24.356-7.378c11.304,4.793,14.015,13.742,13.769,24.455
				c-0.602,26.244-9.91,49.959-22.558,72.372c-11.216,19.875-22.96,39.504-35.611,58.481c-3.081,4.622-10.459,7.945-16.209,8.55
				c-2.797,0.294-7.25-6.624-9.482-11.024c-8.227-16.215-1.453-30.585,6.022-45.023c2.498-4.826,2.85-10.762,4.859-18.941
				c-20.319,19.042-25.877,40.964-31.722,62.802C659.597,592.717,657.551,595.135,654.244,601.055z M303.014,399.179
				c-0.23-0.864-0.459-1.728-0.689-2.592c7.07-1.134,14.105-2.66,21.22-3.311c11.508-1.053,23.474-0.014,34.422-2.943
				c4.852-1.298,8.982-9.667,11.111-15.654c2.594-7.292-2.347-13.724-9.228-14.591c-9.119-1.148-19.199-1.391-27.779,1.364
				c-15.666,5.029-30.369,12.973-45.785,18.89c-12.517,4.804-22.446,10.969-26.599,25.066c-3.432,11.649-7.44,23.781-21.519,28.152
				c-2.404,0.746-5.183,5.48-5.067,8.258c0.53,12.696,0.592,25.668,12.82,34.434c3.886,2.786,5.58,8.492,9.283,11.7
				c5.539,4.799,11.576,11.342,18.09,12.263c19.789,2.796,39.916,4.417,59.899,4.305c22.388-0.126,37.488-14.038,38.909-33.681
				c0.466-6.443-1.442-13.026-1.409-19.541c0.042-8.336,3.173-17.332,0.929-24.835c-2.924-9.775-14.138-6.18-21.802-8.637
				C333.866,412.709,318.577,405.517,303.014,399.179z M624.448,451.434c0.204-1.445,0.408-2.891,0.612-4.336
				c-4.349-1.37-8.684-2.79-13.052-4.1c-6.571-1.972-13.948-2.598-19.578-6.073c-10.133-6.254-19.358-14.028-28.714-21.479
				c-9.551-7.607-20.166-7.517-30.684-3.829c-10.872,3.812-21.41,8.687-31.815,13.678c-8.019,3.846-15.67,8.484-23.368,12.971
				c-6.367,3.711-8.371,9.334-4.864,15.843c6.394,11.866,11.826,24.704,20.406,34.803c7.646,9,15.759,20.401,29.924,20.127
				c27.14-0.524,50.285-8.561,63.029-35.374c6.072-12.776,15.38-21.271,31.048-19.596
				C619.624,454.308,622.09,452.367,624.448,451.434z M471.144,559.119c-4.45-14.626-8.252-27.339-12.262-39.987
				c-0.422-1.331-1.956-2.408-3.156-3.377c-17.878-14.436-47.236-6.237-56.205,14.679c-3.418,7.971-12.304,13.672-8.597,24.272
				c0.376,1.074-1.108,2.804-1.743,4.224c-3.004,6.712-7.431,13.198-8.535,20.208c-0.773,4.91,1.922,11.442,5.27,15.374
				c1.266,1.487,10.187-0.891,13.083-3.926c10.049-10.533,10.302-10.752,15.913,2.378c1.067,2.496,3.636,5.033,6.107,5.952
				c1.192,0.443,4.888-2.472,5.525-4.478c3.304-10.403,10.216-13,20.565-12.537C458.961,582.43,471.331,568.696,471.144,559.119z
				 M560.045,391.599c1.665-0.869,5.845-3.05,10.024-5.23c-2.433-3.487-4.685-7.121-7.352-10.419
				c-2.66-3.29-6.446-5.839-8.492-9.424c-5.582-9.781-14.883-11.61-22.965-7.263c-21.402,11.512-41.959,24.617-62.577,37.528
				c-2.113,1.323-2.362,5.621-3.476,8.539c3.111,1.017,6.373,3.167,9.297,2.778c4.079-0.543,8.065-2.681,11.814-4.661
				c21.801-11.508,43.562-22.931,69.263-12.177C555.92,391.412,556.349,391.339,560.045,391.599z M751.269,471.813
				c1.402-0.884,2.805-1.768,4.207-2.652c-2.699-4.538-4.346-10.779-8.328-13.238c-7.026-4.338-14.057-0.409-17.644,6.165
				c-8.283,15.184-16.027,30.705-22.95,46.544c-1.127,2.578,2.836,10.599,4.837,10.745c7.14,0.52,8.09,3.494,8.013,9.683
				c-0.033,2.671,3.308,5.728,5.768,7.857c0.656,0.568,4.235-1.164,5.584-2.647c8.141-8.954,11.294-43.059,6.035-53.948
				c-1.446-2.995,0.116-7.442,0.298-11.223c3.358,0.303,6.737,0.469,10.065,0.973C748.582,470.29,749.901,471.212,751.269,471.813z
				 M706.174,582.668c1.238-8.643,2.889-16.147,3.016-23.677c0.035-2.067-4.488-4.212-6.919-6.321
				c-3.066,6.676-7.678,13.111-8.769,20.095C692.386,579.906,698.065,583.268,706.174,582.668z"/>
			<path fill="#FFFFFF" d="M600.453,648.521c0,7.011,1.491,11.798-0.261,14.416c-7.184,10.738-13.682,22.923-23.495,30.72
				c-24.433,19.414-50.569,36.681-75.94,54.923c-3.118,2.242-6.04,4.913-8.547,7.821c-16.285,18.889-36.859,23.191-61.233,22.711
				c-41.876-0.825-72.758-23.261-102.803-47.562c-15.189-12.286-28.27-27.281-41.666-41.646
				c-9.35-10.026-14.745-22.273-11.797-36.271c0.77-3.654,6.061-9.434,8.507-9.07c6.89,1.024,13.656,4.264,19.769,7.833
				c1.076,0.628-1.588,7.036-1.902,10.826c-0.433,5.227-2.552,12.986,0.014,15.341c12.989,11.921,24.546,26.425,46.582,21.873
				c16.007-3.306,32.66,3.214,48.734,3.47c21.09,0.336,42.662,3.298,63.908-4.621c10.045-3.744,22.649-0.196,34.031-0.924
				c8.227-0.527,16.363-2.598,24.513-4.12c1.877-0.35,3.832-2.141,5.437-1.799c15.587,3.325,22.709-11.254,33.669-15.351
				C573.899,671.136,584.737,659.572,600.453,648.521z M467.548,713.719c-3.027-0.845-5.522-2.261-6.243-1.635
				c-10.342,8.989-20.787,4.066-31.763,1.484c-6.447-1.517-13.73-0.207-20.524,0.688c-6.245,0.823-12.34,2.792-18.5,4.257
				c3.858,2.675,7.948,3.251,12.043,3.29c10.618,0.103,21.262-0.491,31.851,0.055C445.827,722.448,457.323,724.57,467.548,713.719z"
				/>
			<path fill="#FFFFFF" d="M551.513,218.478c-12.296-2.553-22.402-4.825-32.581-6.705c-7.233-1.336-14.546-2.85-21.856-3.04
				c-15.814-0.41-30.654-3.37-44.498-11.574c-2.883-1.709-7.879-0.233-11.826,0.319c-6.625,0.927-13.151,2.901-19.789,3.319
				c-8.438,0.531-17.004,0.518-25.407-0.332c-6.555-0.664-13.433-1.957-19.283-4.794c-7.135-3.46-12.813-5.054-18.46,2.054
				c-1.539,1.938-4.182,3.738-6.565,4.142c-12.36,2.094-37.398-16.708-30.786-33.707c3.904-10.037,11.225-12.165,18.807-4.351
				c13.689,14.108,24.864,15.081,39.201,1.95c9.585-8.779,18.707-6.923,27.145-0.092c7.968,6.451,14.869,7.162,22.933,1.02
				c8.718-6.64,16.535-6.118,24.709,2.021c6.519,6.491,14.285,8.493,22.789,1.318c8.44-7.121,17.48-7.447,26.001,0.89
				c8.558,8.373,17.86,16.031,25.96,24.81c5.743,6.224,10.616,5.431,17.49,2.366c3.765-1.679,10.177-1.584,13.265,0.652
				c2.638,1.911,4.134,8.891,2.685,12.043C559.747,214.486,554.318,216.47,551.513,218.478z"/>
			<path fill="#FFFFFF" d="M94.333,493.306c1.944-9.452,3.036-19.496,6.221-28.825c2.828-8.284,9.382-10.018,18.002-6.34
				c7.951,3.392,17.646,3.518,24.661,8.044c6.759,4.361,14.969,12.204,15.512,19.073c0.739,9.356,3.374,15.451,8.222,23.413
				c10.755,17.667,14.786,38.099,11.971,59.208c-0.455,3.414-1.404,6.764-1.841,10.179c-2.27,17.728-16.184,26.813-33.436,21.803
				c-14.867-4.318-24.632-12.581-28.218-28.902c-3.63-16.522-10.398-32.331-15.11-48.649
				C97.669,513.146,96.401,503.583,94.333,493.306z M121.462,514.645c-0.768-7.047-1.905-12.223-1.636-17.325
				c0.126-2.395,2.959-4.648,4.566-6.965c2.218,1.784,5.572,3.167,6.375,5.449c1.066,3.029,0.662,6.868-0.031,10.165
				c-1.655,7.876-4.323,15.554-5.728,23.464c-2.822,15.898,8.192,35.573,22.933,41.917c6.406,2.757,13.167,2.716,16.04-3.963
				c1.582-3.678-0.499-9.564-2.329-13.857c-1.237-2.902-4.95-4.726-7.497-7.095c-7.812-7.268-11.686-14.742-4.887-25.451
				c3-4.726,5.709-13.35,3.429-17.036c-7.613-12.309-16.638-24.28-32.183-27.978c-8.977-2.136-14.172,2.081-16.44,10.415
				C101.91,494.34,110.417,509.716,121.462,514.645z"/>
			<path fill="#FFFFFF" d="M520.352,622.419c14.763-6.297,30.079-11.581,44.103-19.231c10.044-5.479,25.572-9.039,33.664-4.507
				c6.154,3.447,7.77,7.582,2.737,12.915c-6.911,7.323-13.349,15.688-25.645,8.829c-6.013-3.354-10.407-0.186-12.137,6.38
				c-2.945,11.174-9.801,13.081-21.086,12.545c-9.84-0.467-20.065,4.307-29.903,7.445c-10.606,3.383-23.475-1.301-27.019-11.236
				c-0.814-2.282,0.711-7.67,2.251-8.154c10.464-3.288,21.22-5.645,31.882-8.303C519.583,620.208,519.968,621.313,520.352,622.419z"
				/>
			<path fill="#FFFFFF" d="M266.789,672.899c-13.946,2.204-17.258-8.106-21.118-15.057c-5.564-10.02-8.339-21.556-12.708-32.28
				c-4.72-11.585-3.207-22.354,1.875-33.533c7.335-16.133,12.045-18.611,27.923-11.083c2.352,1.115,4.444,5.929,4.198,8.824
				c-1,11.808-4.051,23.516-4.253,35.297c-0.205,11.96,2.079,23.96,3.222,35.948C266.285,664.748,266.475,668.498,266.789,672.899z"
				/>
			<path fill="#FFFFFF" d="M255.167,213.11c0.239,10.54-4.961,14.238-15.004,13.165c-4.772-0.51-10.462,1.985-14.827,4.623
				c-6.04,3.65-10.762,11.683-18.588,3.183c-7.093-7.704-8.13-22.754-0.43-26.878c9.874-5.289,20.988-9.378,32.014-11.066
				C247.874,194.676,254.948,203.492,255.167,213.11z"/>
			<path fill="#FFFFFF" d="M414.055,674.166c13.115,0,26.238-0.247,39.336,0.214c2.545,0.089,5.935,2.428,7.154,4.69
				c0.81,1.501-0.873,5.455-2.605,7.029c-7.873,7.151-15.864,12.998-28.051,8.71c-5.581-1.964-12.589,0.146-18.951,0.386
				c-7.619,0.287-15.405,1.648-22.815,0.529c-8.092-1.221-8.296-6.381-3.582-12.724C392.216,672.672,403.171,673.24,414.055,674.166
				z"/>
			<path fill="#FFFFFF" d="M276.319,605.969c16.721,4.001,32.276,7.751,47.845,11.44c11.143,2.641,6.535,11.753,6.568,18.178
				c0.008,1.571-7.674,4.923-11.431,4.438c-10.305-1.331-20.347-4.555-30.594-6.5C272.586,630.464,268.357,620.804,276.319,605.969z
				"/>
			<path fill="#FFFFFF" d="M423.761,640.821c-2.205,12.527-9.765,19.384-22.17,18.327c-4.112-0.35-10.713-4.75-11.21-8.047
				c-1.492-9.898,11.039-24.993,19.377-23.08C415.122,629.252,419.14,636.352,423.761,640.821z"/>
			<path fill="#FFFFFF" d="M461.681,636.234c0.073,15.123-8.471,17.115-16.645,17.172c-2.457,0.017-7.12-6.734-7.007-10.264
				c0.26-8.131,5.317-14.297,14.284-12.982C456.365,630.754,459.88,634.995,461.681,636.234z"/>
			<path fill="#FFFFFF" d="M500.096,663.828c0.919,1.278,5.379,6.329,4.848,6.924c-4.528,5.074-9.964,9.338-15.127,13.844
				c-2.459-2.842-6.835-5.565-7.021-8.548C482.212,666.679,488.686,663.567,500.096,663.828z"/>
			<path d="M303.014,399.179c15.563,6.339,30.852,13.53,46.807,18.646c7.664,2.458,18.878-1.138,21.802,8.637
				c2.244,7.502-0.887,16.499-0.929,24.835c-0.033,6.515,1.875,13.098,1.409,19.541c-1.421,19.643-16.521,33.555-38.909,33.681
				c-19.983,0.113-40.11-1.509-59.899-4.305c-6.515-0.92-12.551-7.463-18.09-12.263c-3.703-3.209-5.398-8.915-9.283-11.7
				c-12.228-8.766-12.29-21.738-12.82-34.434c-0.116-2.778,2.663-7.512,5.067-8.258c14.08-4.371,18.087-16.503,21.519-28.152
				c4.153-14.097,14.082-20.262,26.599-25.066c15.416-5.917,30.119-13.86,45.785-18.89c8.58-2.754,18.659-2.512,27.779-1.364
				c6.881,0.867,11.822,7.299,9.228,14.591c-2.13,5.987-6.259,14.356-11.111,15.654c-10.948,2.929-22.914,1.89-34.422,2.943
				c-7.115,0.651-14.149,2.177-21.22,3.311C302.555,397.451,302.784,398.315,303.014,399.179z M302.161,464.838
				c6.925-1.345,13.762-1.877,19.887-4.248c2.507-0.971,4.834-5.986,4.681-9.033c-0.108-2.147-4.248-5.173-7.082-5.911
				C308.876,442.841,303.018,448.946,302.161,464.838z M280.865,445.366c-3.515,5.619-7.41,9.472-6.633,11.108
				c1.511,3.186,5.385,5.711,8.843,7.228c1.019,0.447,5.96-4.069,5.601-5.176C287.441,454.718,284.657,451.412,280.865,445.366z"/>
			<path d="M624.448,451.434c-2.358,0.932-4.823,2.874-7.056,2.635c-15.668-1.675-24.976,6.82-31.048,19.596
				c-12.744,26.813-35.888,34.85-63.029,35.374c-14.165,0.274-22.278-11.127-29.924-20.127
				c-8.58-10.099-14.012-22.937-20.406-34.803c-3.507-6.509-1.503-12.132,4.864-15.843c7.698-4.487,15.349-9.124,23.368-12.971
				c10.405-4.991,20.944-9.867,31.815-13.678c10.517-3.688,21.133-3.778,30.684,3.829c9.356,7.451,18.581,15.225,28.714,21.479
				c5.63,3.474,13.007,4.101,19.578,6.073c4.367,1.31,8.702,2.73,13.052,4.1C624.856,448.544,624.652,449.989,624.448,451.434z
				 M550.233,461.233c-6.813-1.349-12.485-2.9-18.245-3.364c-1.839-0.148-4.566,2.231-5.604,4.148
				c-0.531,0.982,1.665,4.995,2.806,5.074C536.309,467.584,544.13,469.616,550.233,461.233z"/>
			<path d="M471.144,559.119c0.187,9.577-12.183,23.311-24.035,22.781c-10.349-0.463-17.261,2.135-20.565,12.537
				c-0.637,2.006-4.333,4.921-5.525,4.478c-2.471-0.919-5.04-3.456-6.107-5.952c-5.612-13.13-5.864-12.911-15.913-2.378
				c-2.896,3.035-11.816,5.413-13.083,3.926c-3.348-3.932-6.043-10.464-5.27-15.374c1.104-7.01,5.531-13.496,8.535-20.208
				c0.635-1.419,2.118-3.15,1.743-4.224c-3.707-10.601,5.179-16.301,8.597-24.272c8.969-20.916,38.327-29.115,56.205-14.679
				c1.2,0.969,2.734,2.047,3.156,3.377C462.892,531.78,466.694,544.493,471.144,559.119z"/>
			<path d="M560.045,391.599c-3.696-0.26-4.125-0.187-4.464-0.329c-25.702-10.754-47.463,0.669-69.263,12.177
				c-3.749,1.979-7.735,4.118-11.814,4.661c-2.924,0.389-6.186-1.761-9.297-2.778c1.114-2.918,1.364-7.216,3.476-8.539
				c20.617-12.912,41.175-26.016,62.577-37.528c8.081-4.347,17.383-2.518,22.965,7.263c2.046,3.585,5.832,6.134,8.492,9.424
				c2.667,3.299,4.918,6.932,7.352,10.419C565.89,388.55,561.711,390.73,560.045,391.599z"/>
			<path d="M751.269,471.813c-1.368-0.601-2.687-1.524-4.113-1.74c-3.328-0.505-6.707-0.67-10.065-0.973
				c-0.182,3.781-1.744,8.228-0.298,11.223c5.258,10.889,2.105,44.994-6.035,53.948c-1.349,1.484-4.927,3.215-5.584,2.647
				c-2.46-2.129-5.801-5.186-5.768-7.857c0.077-6.189-0.873-9.163-8.013-9.683c-2.001-0.146-5.964-8.167-4.837-10.745
				c6.923-15.839,14.667-31.36,22.95-46.544c3.586-6.574,10.617-10.504,17.644-6.165c3.982,2.459,5.629,8.7,8.328,13.238
				C754.074,470.046,752.672,470.93,751.269,471.813z"/>
			<path d="M706.174,582.668c-8.109,0.6-13.788-2.762-12.672-9.902c1.091-6.985,5.703-13.419,8.769-20.095
				c2.431,2.109,6.954,4.253,6.919,6.321C709.063,566.521,707.412,574.025,706.174,582.668z"/>
			<path d="M467.548,713.719c-10.225,10.851-21.721,8.728-33.135,8.14c-10.589-0.546-21.233,0.047-31.851-0.055
				c-4.095-0.04-8.185-0.615-12.043-3.29c6.161-1.464,12.255-3.434,18.5-4.257c6.794-0.895,14.077-2.205,20.524-0.688
				c10.976,2.582,21.421,7.504,31.763-1.484C462.026,711.458,464.521,712.874,467.548,713.719z"/>
			<path d="M121.462,514.645c-11.045-4.929-19.552-20.305-17.388-28.261c2.267-8.335,7.463-12.551,16.44-10.415
				c15.545,3.698,24.57,15.669,32.183,27.978c2.28,3.687-0.428,12.311-3.429,17.036c-6.799,10.709-2.925,18.183,4.887,25.451
				c2.547,2.369,6.26,4.193,7.497,7.095c1.83,4.293,3.911,10.18,2.329,13.857c-2.873,6.679-9.634,6.72-16.04,3.963
				c-14.741-6.344-25.756-26.019-22.933-41.917c1.404-7.91,4.072-15.588,5.728-23.464c0.693-3.297,1.097-7.136,0.031-10.165
				c-0.803-2.282-4.156-3.666-6.375-5.449c-1.606,2.317-4.44,4.57-4.566,6.965C119.557,502.422,120.694,507.598,121.462,514.645z"/>
			<path fill="#FFFFFF" d="M302.161,464.838c0.856-15.892,6.715-21.997,17.487-19.193c2.834,0.738,6.974,3.764,7.082,5.911
				c0.153,3.047-2.174,8.063-4.681,9.033C315.924,462.962,309.087,463.493,302.161,464.838z"/>
			<path fill="#FFFFFF" d="M280.865,445.366c3.792,6.046,6.576,9.352,7.811,13.161c0.359,1.107-4.582,5.623-5.601,5.176
				c-3.458-1.517-7.332-4.043-8.843-7.228C273.455,454.838,277.349,450.985,280.865,445.366z"/>
			<path fill="#FFFFFF" d="M550.233,461.233c-6.103,8.383-13.925,6.351-21.043,5.857c-1.141-0.079-3.338-4.092-2.806-5.074
				c1.038-1.917,3.765-4.296,5.604-4.148C537.748,458.333,543.42,459.884,550.233,461.233z"/>
		</g>
	</g>
</g>
</svg>
